<?xml version="1.0" encoding="UTF-8" standalone="no"?>
<!-- Created with Inkscape (http://www.inkscape.org/) -->

<svg
   xmlns:dc="http://purl.org/dc/elements/1.1/"
   xmlns:cc="http://creativecommons.org/ns#"
   xmlns:rdf="http://www.w3.org/1999/02/22-rdf-syntax-ns#"
   xmlns:svg="http://www.w3.org/2000/svg"
   xmlns="http://www.w3.org/2000/svg"
   xmlns:sodipodi="http://sodipodi.sourceforge.net/DTD/sodipodi-0.dtd"
   xmlns:inkscape="http://www.inkscape.org/namespaces/inkscape"
   width="512"
   height="512"
   viewBox="0 0 135.46666 135.46667"
   version="1.1"
   id="svg8"
   inkscape:version="0.92.3 (2405546, 2018-03-11)"
   sodipodi:docname="logo.svg"
   inkscape:export-filename="/home/skylar/Documents/Projects/Websites/fixphrase.com/img/logo.48.png"
   inkscape:export-xdpi="9"
   inkscape:export-ydpi="9">
  <sodipodi:namedview
     id="base"
     pagecolor="#ffffff"
     bordercolor="#666666"
     borderopacity="1.0"
     inkscape:pageopacity="0.0"
     inkscape:pageshadow="2"
     inkscape:zoom="0.97365289"
     inkscape:cx="112.21117"
     inkscape:cy="185.41796"
     inkscape:document-units="px"
     inkscape:current-layer="layer1"
     showgrid="false"
     units="px"
     showguides="false"
     inkscape:window-width="1920"
     inkscape:window-height="1013"
     inkscape:window-x="0"
     inkscape:window-y="0"
     inkscape:window-maximized="1" />
  <defs
     id="defs2">
    <filter
       style="color-interpolation-filters:sRGB;"
       inkscape:label="Drop Shadow"
       id="filter1094">
      <feFlood
         flood-opacity="0.717647"
         flood-color="rgb(0,0,0)"
         result="flood"
         id="feFlood1084" />
      <feComposite
         in="flood"
         in2="SourceGraphic"
         operator="in"
         result="composite1"
         id="feComposite1086" />
      <feGaussianBlur
         in="composite1"
         stdDeviation="2"
         result="blur"
         id="feGaussianBlur1088" />
      <feOffset
         dx="0"
         dy="0"
         result="offset"
         id="feOffset1090" />
      <feComposite
         in="SourceGraphic"
         in2="offset"
         operator="over"
         result="composite2"
         id="feComposite1092" />
    </filter>
    <filter
       style="color-interpolation-filters:sRGB;"
       inkscape:label="Drop Shadow"
       id="filter1106">
      <feFlood
         flood-opacity="0.717647"
         flood-color="rgb(0,0,0)"
         result="flood"
         id="feFlood1096" />
      <feComposite
         in="flood"
         in2="SourceGraphic"
         operator="in"
         result="composite1"
         id="feComposite1098" />
      <feGaussianBlur
         in="composite1"
         stdDeviation="2"
         result="blur"
         id="feGaussianBlur1100" />
      <feOffset
         dx="0"
         dy="0"
         result="offset"
         id="feOffset1102" />
      <feComposite
         in="SourceGraphic"
         in2="offset"
         operator="over"
         result="composite2"
         id="feComposite1104" />
    </filter>
    <filter
       style="color-interpolation-filters:sRGB;"
       inkscape:label="Drop Shadow"
       id="filter1120">
      <feFlood
         flood-opacity="0.717647"
         flood-color="rgb(0,0,0)"
         result="flood"
         id="feFlood1110" />
      <feComposite
         in="flood"
         in2="SourceGraphic"
         operator="in"
         result="composite1"
         id="feComposite1112" />
      <feGaussianBlur
         in="composite1"
         stdDeviation="2"
         result="blur"
         id="feGaussianBlur1114" />
      <feOffset
         dx="0"
         dy="0"
         result="offset"
         id="feOffset1116" />
      <feComposite
         in="SourceGraphic"
         in2="offset"
         operator="over"
         result="composite2"
         id="feComposite1118" />
    </filter>
  </defs>
  <metadata
     id="metadata5">
    <rdf:RDF>
      <cc:Work
         rdf:about="">
        <dc:format>image/svg+xml</dc:format>
        <dc:type
           rdf:resource="http://purl.org/dc/dcmitype/StillImage" />
        <dc:title></dc:title>
      </cc:Work>
    </rdf:RDF>
  </metadata>
  <g
     transform="translate(0,-161.53331)"
     id="layer1"
     inkscape:groupmode="layer"
     inkscape:label="Layer 1">
    <rect
       style="opacity:1;fill:#03a9f4;fill-opacity:1;stroke:none;stroke-width:0.1;stroke-linecap:round;stroke-linejoin:miter;stroke-miterlimit:4;stroke-dasharray:none;stroke-dashoffset:0;stroke-opacity:1;paint-order:fill markers stroke"
       id="rect1108"
       width="135.46666"
       height="135.46666"
       x="2.7270507e-06"
       y="161.53331"
       rx="7.9375"
       ry="7.9375" />
    <g
       id="g918"
       style="fill:#33691e;fill-opacity:1;stroke:none;stroke-width:0.62995636;filter:url(#filter1120)"
       transform="matrix(1.5874115,0,0,1.5874115,217.74247,-102.83712)">
      <path
         style="opacity:1;fill:#33691e;fill-opacity:1;stroke:none;stroke-width:0.06299564;stroke-linecap:round;stroke-linejoin:miter;stroke-miterlimit:4;stroke-dasharray:none;stroke-dashoffset:0;stroke-opacity:1;paint-order:fill markers stroke"
         d="m -116.43386,217.49853 h 44.184971 l 17.437176,30.74884 h -79.375007 z"
         id="rect860"
         inkscape:connector-curvature="0"
         sodipodi:nodetypes="ccccc" />
      <path
         id="rect885"
         d="m -110.78663,217.50609 c 0,0 -1.00721,2.36265 -1.00721,2.36265 0,0 -6.13699,7.9e-4 -6.13699,7.9e-4 0,0 -0.18641,0.32288 -0.18641,0.32288 0,0 6.1858,-7.9e-4 6.1858,-7.9e-4 0,0 -1.13224,2.65591 -1.13224,2.65591 0,0 -6.58749,0.002 -6.58749,0.002 0,0 -0.21489,0.37219 -0.21489,0.37219 0,0 6.64377,-0.002 6.64377,-0.002 0,0 -1.31222,3.07812 -1.31222,3.07812 0,0 -7.10942,0.003 -7.10942,0.003 0,0 -0.25041,0.43373 -0.25041,0.43373 0,0 7.175,-0.003 7.175,-0.003 0,0 -1.53875,3.6095 -1.53875,3.6095 0,0 -7.72115,0.005 -7.72115,0.005 0,0 -0.29555,0.5119 -0.29555,0.5119 0,0 7.79858,-0.005 7.79858,-0.005 0,0 -1.82937,4.2912 -1.82937,4.2912 0,0 -8.44804,0.008 -8.44804,0.008 0,0 -0.35408,0.61328 -0.35408,0.61328 0,0 8.54082,-0.008 8.54082,-0.008 0,0 -2.21113,5.18671 -2.21113,5.18671 0,0 -9.32606,0.011 -9.32606,0.011 0,0 -0.43188,0.74804 -0.43188,0.74804 0,0 9.43925,-0.0115 9.43925,-0.0115 0,0 -2.7915,6.5481 -2.7915,6.5481 0,0 1.33085,-0.002 1.33085,-0.002 0,0 2.66504,-6.5475 2.66504,-6.5475 0,0 9.22891,-0.0112 9.22891,-0.0112 0,0 -1.69655,6.54295 -1.69655,6.54295 0,0 1.3293,-0.002 1.3293,-0.002 0,0 1.57036,-6.54236 1.57036,-6.54236 0,0 9.21921,-0.0112 9.21921,-0.0112 0,0 -0.60402,6.53782 -0.60402,6.53782 0,0 1.327759,-0.002 1.327759,-0.002 0,0 0.47811,-6.53724 0.47811,-6.53724 0,0 9.209048,-0.0112 9.209048,-0.0112 0,0 0.486055,6.5327 0.486055,6.5327 0,0 1.326214,-0.002 1.326214,-0.002 0,0 -0.61168,-6.53211 -0.61168,-6.53211 0,0 9.199838,-0.0112 9.199838,-0.0112 0,0 1.573762,6.52758 1.573762,6.52758 0,0 1.324679,-0.002 1.324679,-0.002 0,0 -1.699114,-6.52699 -1.699114,-6.52699 0,0 9.190177,-0.0112 9.190177,-0.0112 0,0 2.659071,6.52247 2.659071,6.52247 0,0 1.323141,-0.002 1.323141,-0.002 0,0 -2.784144,-6.52189 -2.784144,-6.52189 0,0 9.379701,-0.0114 9.379701,-0.0114 0,0 -0.429725,-0.7443 -0.429725,-0.7443 0,0 -9.267921,0.011 -9.267921,0.011 0,0 -2.206556,-5.16888 -2.206556,-5.16888 0,0 8.492032,-0.008 8.492032,-0.008 0,0 -0.352546,-0.61063 -0.352546,-0.61063 0,0 -8.400307,0.007 -8.400307,0.007 0,0 -1.826426,-4.27842 -1.826426,-4.27842 0,0 7.757885,-0.005 7.757885,-0.005 0,0 -0.294439,-0.50998 -0.294439,-0.50998 0,0 -7.681262,0.005 -7.681262,0.005 0,0 -1.536867,-3.60013 -1.536867,-3.60013 0,0 7.140544,-0.003 7.140544,-0.003 0,0 -0.249595,-0.43231 -0.249595,-0.43231 0,0 -7.075577,0.003 -7.075577,0.003 0,0 -1.311045,-3.07114 -1.311045,-3.07114 0,0 6.61421,-0.002 6.61421,-0.002 0,0 -0.214268,-0.37113 -0.214268,-0.37113 0,0 -6.558433,0.002 -6.558433,0.002 0,0 -1.131528,-2.65062 -1.131528,-2.65062 0,0 6.160164,-8e-4 6.160164,-8e-4 0,0 -0.185943,-0.32206 -0.185943,-0.32206 0,0 -6.111754,8e-4 -6.111754,8e-4 0,0 -1.006832,-2.35852 -1.006832,-2.35852 0,0 -0.735229,0 -0.735229,0 0,0 0.961554,2.35861 0.961554,2.35861 0,0 -5.986047,7.9e-4 -5.986047,7.9e-4 0,0 -0.614183,-2.35932 -0.614183,-2.35932 0,0 -0.735703,0 -0.735703,0 0,0 0.568841,2.35941 0.568841,2.35941 0,0 -5.990143,8e-4 -5.990143,8e-4 0,0 -0.221006,-2.36013 -0.221006,-2.36013 0,0 -0.73618,0 -0.73618,0 0,0 0.17561,2.36022 0.17561,2.36022 0,0 -5.99394,7.9e-4 -5.99394,7.9e-4 0,0 0.17267,-2.36093 0.17267,-2.36093 0,0 -0.736653,0 -0.736653,0 0,0 -0.218128,2.36103 -0.218128,2.36103 0,0 -5.998351,7.9e-4 -5.998351,7.9e-4 0,0 0.56689,-2.36174 0.56689,-2.36174 0,0 -0.73713,0 -0.73713,0 0,0 -0.6124,2.36184 -0.6124,2.36184 0,0 -6.00246,7.9e-4 -6.00246,7.9e-4 0,0 0.96163,-2.36255 0.96163,-2.36255 0,0 -0.7376,0 -0.7376,0 0,0 0,0 0,0 m -0.3554,2.6853 c 0,0 6.05016,-7.9e-4 6.05016,-7.9e-4 0,0 -0.68839,2.65487 -0.68839,2.65487 0,0 -6.44276,0.002 -6.44276,0.002 0,0 1.08099,-2.6558 1.08099,-2.6558 0,0 0,0 0,0 m 6.83903,-0.001 c 0,0 6.045991,-8e-4 6.045991,-8e-4 0,0 -0.245181,2.65384 -0.245181,2.65384 0,0 -6.43803,0.002 -6.43803,0.002 0,0 0.63722,-2.65475 0.63722,-2.65475 0,0 0,0 0,0 m 6.834315,-0.001 c 0,0 6.041516,-8e-4 6.041516,-8e-4 0,0 0.19738,2.65281 0.19738,2.65281 0,0 -6.432979,0.002 -6.432979,0.002 0,0 0.194083,-2.65372 0.194083,-2.65372 0,0 0,0 0,0 m 6.829295,-7.9e-4 c 0,0 6.037656,-8e-4 6.037656,-8e-4 0,0 0.639329,2.65178 0.639329,2.65178 0,0 -6.428581,0.002 -6.428581,0.002 0,0 -0.248404,-2.65269 -0.248404,-2.65269 0,0 0,0 0,0 m 6.824892,-0.001 c 0,0 6.033498,-7.9e-4 6.033498,-7.9e-4 0,0 1.080648,2.65074 1.080648,2.65074 0,0 -6.423864,0.002 -6.423864,0.002 0,0 -0.690282,-2.65165 -0.690282,-2.65165 0,0 0,0 0,0 m -28.559952,3.03152 c 0,0 6.49776,-0.002 6.49776,-0.002 0,0 -0.79778,3.07676 -0.79778,3.07676 0,0 -6.95281,0.003 -6.95281,0.003 0,0 1.25283,-3.07797 1.25283,-3.07797 0,0 0,0 0,0 m 7.34497,-0.002 c 0,0 6.492947,-0.002 6.492947,-0.002 0,0 -0.284128,3.07539 -0.284128,3.07539 0,0 -6.947299,0.003 -6.947299,0.003 0,0 0.73848,-3.0766 0.73848,-3.0766 0,0 0,0 0,0 m 7.339523,-0.002 c 0,0 6.487814,-0.002 6.487814,-0.002 0,0 0.228719,3.07403 0.228719,3.07403 0,0 -6.941442,0.003 -6.941442,0.003 0,0 0.224909,-3.07524 0.224909,-3.07524 0,0 0,0 0,0 m 7.333766,-0.002 c 0,0 6.483337,-0.002 6.483337,-0.002 0,0 0.740801,3.07265 0.740801,3.07265 0,0 -6.936295,0.003 -6.936295,0.003 0,0 -0.287843,-3.07386 -0.287843,-3.07386 0,0 0,0 0,0 m 7.328662,-0.002 c 0,0 6.47854,-0.002 6.47854,-0.002 0,0 1.252101,3.07129 1.252101,3.07129 0,0 -6.930805,0.003 -6.930805,0.003 0,0 -0.799836,-3.0725 -0.799836,-3.0725 0,0 0,0 0,0 m -30.776211,3.51995 c 0,0 7.01691,-0.003 7.01691,-0.003 0,0 -0.93545,3.60766 -0.93545,3.60766 0,0 -7.55055,0.005 -7.55055,0.005 0,0 1.46909,-3.60928 1.46909,-3.60928 0,0 0,0 0,0 m 7.93177,-0.004 c 0,0 7.011293,-0.003 7.011293,-0.003 0,0 -0.333134,3.60583 -0.333134,3.60583 0,0 -7.544059,0.005 -7.544059,0.005 0,0 0.8659,-3.60745 0.8659,-3.60745 0,0 0,0 0,0 m 7.925429,-0.004 c 0,0 7.005327,-0.003 7.005327,-0.003 0,0 0.26815,3.60399 0.26815,3.60399 0,0 -7.53718,0.005 -7.53718,0.005 0,0 0.263703,-3.60562 0.263703,-3.60562 0,0 0,0 0,0 m 7.918733,-0.004 c 0,0 7.000083,-0.003 7.000083,-0.003 0,0 0.868463,3.60217 0.868463,3.60217 0,0 -7.531081,0.005 -7.531081,0.005 0,0 -0.337465,-3.60379 -0.337465,-3.60379 0,0 0,0 0,0 m 7.912758,-0.004 c 0,0 6.994491,-0.003 6.994491,-0.003 0,0 1.467781,3.60034 1.467781,3.60034 0,0 -7.524607,0.005 -7.524607,0.005 0,0 -0.937665,-3.60196 -0.937665,-3.60196 0,0 0,0 0,0 m -33.36603,4.13565 c 0,0 7.6262,-0.005 7.6262,-0.005 0,0 -1.11203,4.2887 -1.11203,4.2887 0,0 -8.2607,0.007 -8.2607,0.007 0,0 1.74653,-4.29091 1.74653,-4.29091 0,0 0,0 0,0 m 8.62048,-0.006 c 0,0 7.619569,-0.005 7.619569,-0.005 0,0 -0.395989,4.28619 -0.395989,4.28619 0,0 -8.25293,0.007 -8.25293,0.007 0,0 1.02935,-4.28841 1.02935,-4.28841 0,0 0,0 0,0 m 8.612979,-0.006 c 0,0 7.612565,-0.005 7.612565,-0.005 0,0 0.318722,4.2837 0.318722,4.2837 0,0 -8.244742,0.007 -8.244742,0.007 0,0 0.313455,-4.28591 0.313455,-4.28591 0,0 0,0 0,0 m 8.605109,-0.006 c 0,0 7.60634,-0.005 7.60634,-0.005 0,0 1.032174,4.2812 1.032174,4.2812 0,0 -8.237405,0.007 -8.237405,0.007 0,0 -0.401109,-4.28341 -0.401109,-4.28341 0,0 0,0 0,0 m 8.598022,-0.006 c 0,0 7.599735,-0.005 7.599735,-0.005 0,0 1.744338,4.27871 1.744338,4.27871 0,0 -8.229659,0.007 -8.229659,0.007 0,0 -1.114414,-4.28091 -1.114414,-4.28091 0,0 0,0 0,0 m -36.43259,4.92697 c 0,0 8.35134,-0.008 8.35134,-0.008 0,0 -1.34397,5.18321 -1.34397,5.18321 0,0 -9.11835,0.0108 -9.11835,0.0108 0,0 2.11098,-5.1863 2.11098,-5.1863 0,0 0,0 0,0 m 9.44011,-0.009 c 0,0 8.343393,-0.008 8.343393,-0.008 0,0 -0.478543,5.17972 -0.478543,5.17972 0,0 -9.10888,0.0108 -9.10888,0.0108 0,0 1.24403,-5.18281 1.24403,-5.18281 0,0 0,0 0,0 m 9.431124,-0.009 c 0,0 8.335031,-0.008 8.335031,-0.008 0,0 0.38513,5.17624 0.38513,5.17624 0,0 -9.098957,0.0108 -9.098957,0.0108 0,0 0.378796,-5.17933 0.378796,-5.17933 0,0 0,0 0,0 m 9.421728,-0.009 c 0,0 8.327524,-0.008 8.327524,-0.008 0,0 1.247127,5.17276 1.247127,5.17276 0,0 -9.089974,0.0107 -9.089974,0.0107 0,0 -0.484677,-5.17583 -0.484677,-5.17583 0,0 0,0 0,0 m 9.413189,-0.009 c 0,0 8.319611,-0.008 8.319611,-0.008 0,0 2.107404,5.16928 2.107404,5.16928 0,0 -9.08054,0.0108 -9.08054,0.0108 0,0 -1.346475,-5.17236 -1.346475,-5.17236 0,0 0,0 0,0"
         style="opacity:1;fill:#00c853;fill-opacity:1;stroke:none;stroke-width:0.06299564;stroke-linecap:round;stroke-linejoin:miter;stroke-miterlimit:4;stroke-dasharray:none;stroke-dashoffset:0;stroke-opacity:1;paint-order:fill markers stroke"
         inkscape:connector-curvature="0" />
    </g>
    <g
       id="g1125"
       transform="translate(-4.398055)">
      <path
         style="fill:#f44336;stroke-width:0.26458332;filter:url(#filter1094)"
         d="m 58.982788,169.81375 c -22.306332,0 -40.389102,18.08278 -40.389102,40.3891 0,16.28458 5.673256,20.83163 36.238092,65.14157 0.991439,1.43226 2.541409,2.15655 4.097512,2.17275 l 0.02643,-52.98185 A 16.404743,16.404743 0 0 1 42.617301,208.13395 16.404743,16.404743 0 0 1 58.972089,191.73133 Z"
         id="path2"
         inkscape:connector-curvature="0" />
      <g
         style="filter:url(#filter1106)"
         id="g849"
         transform="translate(0,0.07554504)">
        <path
           id="rect821"
           transform="matrix(0.26458333,0,0,0.26458333,0,161.45776)"
           d="m 266.92773,31.296875 c -16.62,0 -30,11.844477 -30,26.558594 0,14.714154 13.38,26.560547 30,26.560547 h 141.70704 c 16.62001,0 30,-11.846393 30,-26.560547 0,-14.714117 -13.37999,-26.558594 -30,-26.558594 z m 0,82.666015 c -16.62,0 -30,11.84639 -30,26.56055 0,14.71415 13.38,26.55859 30,26.55859 h 113.13672 c 16.61998,0 30,-11.84444 30,-26.55859 0,-14.71416 -13.38002,-26.56055 -30,-26.56055 z m 0,82.66602 c -16.62,0 -30,11.84639 -30,26.56054 0,14.71412 13.38,26.56055 30,26.56055 h 170.2793 c 16.61998,0 30,-11.84643 30,-26.56055 0,-14.71415 -13.38002,-26.56054 -30,-26.56054 z m 0,82.66797 c -16.62,0 -30,11.84443 -30,26.55859 0,14.71415 13.38,26.56055 30,26.56055 h 87.42188 c 16.62,0 30,-11.8464 30,-26.56055 0,-14.71416 -13.38,-26.55859 -30,-26.55859 z"
           style="opacity:1;fill:#ffffff;fill-opacity:1;stroke:none;stroke-width:0.37795269;stroke-linecap:round;stroke-linejoin:miter;stroke-miterlimit:4;stroke-dasharray:none;stroke-dashoffset:0;stroke-opacity:1;paint-order:fill markers stroke"
           inkscape:connector-curvature="0" />
      </g>
    </g>
    <path
       inkscape:connector-curvature="0"
       id="path934"
       d="m -105.17187,247.86307 17.752852,-30.74884 h 44.184975 l 17.68162,30.62546 z"
       style="fill:none;fill-rule:evenodd;stroke:none;stroke-width:0.26458332px;stroke-linecap:butt;stroke-linejoin:miter;stroke-opacity:1;fill-opacity:1" />
    <path
       style="fill:none;fill-rule:evenodd;stroke:#000000;stroke-width:0.26458332px;stroke-linecap:butt;stroke-linejoin:miter;stroke-opacity:1"
       d="m -220.46265,366.02264 17.75285,-30.74884 h 44.18498 l 17.68162,30.62546 z"
       id="path936"
       inkscape:connector-curvature="0" />
  </g>
</svg>
